Patient4_TMGait_0pt6_01_right_12_EMG.mot
version=1
nRows=27
nColumns=33
inDegrees=no
endheader
time	1LAddLong	2LGlutMax	3LGlutMed	4LIliopsoas	5LSemiMemb	6LBicFemLong	7LRecFem	8LVastMed	9LVastLat	10LGasMed	11LTibAnt	12lTibPost	13LPeroneusLong	14LSol	15LExtDigLong	16LFlexDigLong	17RAddLong	18RGlutMax	19RGlutMed	20RIliopsoas	21RSemiMemb	22RBicFemLong	23RRecFem	24RVastMed	25RVastLat	26RGasMed	27RTibAnt	28RTibPost	29RPeroneusLong	30RSol	31RExtDigLong	32RFlexDigLong
13.94	-0.007324	-0.094452	-0.001831	0.015869	-0.010223	-0.003357	0.054321	0.013428	0.000153	0.34454	0.011902	0.009308	-0.19684	0.16388	-0.094452	0.006104	0.10864	-0.17197	0.046692	0.063934	0.064545	-0.00412	0.19928	-0.20371	-0.033417	-0.010376	0.29923	-0.005646	0.044403	0.099487	-0.00412	0.007629
13.941	-0.01709	-0.091553	-0.062866	-0.006104	-0.007935	-0.005188	0.098419	0.00885	0.043793	0.24078	-0.028992	-0.000305	-0.036621	0.504	0.044861	-0.000916	0.1564	-0.18555	-0.005798	0.074463	0.057068	0.000916	0.40756	-0.18005	-0.041809	0.000305	0.62118	-0.000916	-0.000458	0.012054	-0.009308	0.005798
13.942	-0.015106	-0.046997	-0.062256	-0.026855	-0.006561	0.028381	0.13367	0.007935	0.077972	-0.028381	-0.055237	0.004272	0.65109	0.46448	0.11292	0.012665	0.13657	-0.17792	0.085144	0.12634	0.052032	0.00473	0.33279	-0.18875	-0.026093	-0.006561	0.53223	0.00061	0.010834	-0.041504	0	-0.000153
13.943	-0.011292	-0.056152	-0.072937	-0.004578	-0.018005	0.058899	0.11292	0.013275	0.06012	-0.27878	-0.14511	0.003357	1.2308	0.33417	0.017395	0.004425	0.19623	-0.16312	0.017853	0.10635	0.046387	0.023346	0.057373	-0.12787	-0.028534	-0.002289	-0.42007	-0.000458	-0.045319	-0.011902	-0.005188	0.009003
13.944	-0.017548	-0.031891	-0.15564	-0.025482	-0.028839	0.068817	0.065308	0.002136	0.073242	-0.28336	-0.11856	0.010376	0.37231	0.29846	-0.046844	0.003052	0.14557	-0.15595	0.2034	0.061188	0.052795	0.022125	0.13428	-0.083771	-0.037689	-0.000458	-0.47119	-0.000763	-0.26169	-0.032043	0.000305	0.0177
13.945	-0.011444	-0.023499	-0.18265	-0.006409	-0.050354	0.072327	0.075073	0.015411	0.033264	-0.17761	0.049591	0.005341	-0.29373	0.34042	-0.009766	-0.01297	0.073853	-0.13977	0.17105	0.012512	0.034637	0.028076	0.34515	-0.018463	-0.050354	-0.006866	-0.006866	-0.003052	-0.15945	-0.026703	-0.00351	0.00946
13.946	-0.02655	0.001678	0.001984	0.019836	-0.063171	0.069427	0.11292	0.019531	0.011139	-0.088501	0.20203	0.014954	-1.0724	0.25223	-0.016937	-0.009918	-0.015259	-0.16266	0.09903	0.00412	0.028839	0.025482	0.448	-0.040131	-0.083466	-0.007172	-0.2562	-0.006256	0.20783	-0.002289	-0.005188	0.009155
13.947	-0.009003	-0.027313	0.00885	0.016174	-0.065765	0.033112	0.112	0.017548	-0.011139	-0.075378	0.22781	0.007935	-0.01236	0.095825	-0.2449	-0.00824	-0.045013	-0.16846	0.28397	-0.103	0.028992	0.024109	0.69916	-0.090485	-0.061493	-0.015259	-0.63477	-0.001984	0.17181	-0.015717	0.003204	0.008087
13.948	0.006409	-0.034637	0.068665	0.002289	-0.035553	0.003967	0.10773	0.024567	0.072174	-0.073547	0.12512	0	0.089264	0.22964	-0.3006	0.002289	-0.042419	-0.1741	0.21652	0.010071	0.036926	0.02594	0.7132	-0.18662	-0.10361	-0.016632	-0.29114	-0.000305	0.21316	0.005188	-0.00824	0.01358
13.949	-0.003357	-0.059052	0.061951	0.004883	-0.01236	-0.034332	0.19867	0.018005	0.16419	-0.10346	0.1329	0.012817	-0.13565	0.23315	-0.072937	0.004883	-0.051422	-0.22385	0.22949	0.045166	0.034637	0.02594	0.71915	-0.21912	-0.10132	-0.00946	0.22354	-0.003204	0.11444	-0.036621	-0.002136	0.016632
13.95	-0.006256	-0.086365	0.049744	0.007629	0.005951	-0.080261	0.23315	0.014648	0.18097	-0.10941	-0.023193	-0.001984	-0.45425	0.18158	0.002594	0.014496	-0.066223	-0.20889	0.16846	0.029449	0.045929	0.027313	0.69	-0.16892	-0.056	0.00473	0.50888	0.001678	0.071716	-0.12405	-0.005188	0.028992
13.951	0.000153	-0.077972	0.011749	0.015411	0.011292	-0.050354	0.27954	0.016632	0.1506	-0.017853	-0.13733	-0.000305	-0.29144	-0.010834	-0.061035	-0.001373	-0.052795	-0.19501	0.20096	0.02655	0.051575	0.032959	0.56763	-0.055695	0.001373	0.005341	0.15808	0.000153	-0.034485	-0.14908	-0.003662	0.019836
13.952	-0.005646	-0.095978	-0.15579	-0.033875	0.018921	0.005798	0.26611	0.021057	0.10986	-0.014343	-0.18417	0.005035	-0.1799	-0.087738	0.006561	0.004272	-0.061188	-0.17563	0.37979	0.045166	0.058899	0.029297	0.45425	-0.077057	-0.015717	-0.006714	-0.007172	-0.002289	-0.25436	-0.079803	-0.006409	0.019836
13.953	-0.002136	-0.11337	-0.20264	0.000763	0.006714	0.024567	0.18601	0.020905	0.11932	-0.046082	-0.21179	0.010986	0.03418	-0.088196	0.10498	0.001678	-0.051575	-0.19898	0.30014	0.012054	0.059052	0.032501	0.16983	-0.067444	-0.008392	-0.005341	0.18463	-0.002899	-0.27557	-0.070343	-0.005798	0.024872
13.954	0.001526	-0.11063	-0.18433	0.027161	0.000153	0.027161	0.074005	0.021515	-0.065918	0.01709	-0.23117	0.014191	0.083618	-0.15656	0.76752	-0.011444	-0.035248	-0.2211	0.20706	-0.083771	0.063934	0.040131	0.010681	-0.016937	-0.019684	0	0.43884	-0.004425	-0.044556	-0.14755	0	0.027161
13.955	0.00473	-0.10391	-0.15549	0.026703	-0.009766	0.048218	-0.024414	0.020294	-0.24811	0.094299	-0.15015	0.006409	0.10346	-0.27344	0.26154	-0.005341	-0.040588	-0.18875	0.34119	-0.16739	0.060425	0.061035	0.007629	0.003357	-0.034027	-0.000305	0.77499	-0.003204	0.27741	-0.41489	-0.002594	0.020294
13.956	0.003662	-0.098114	-0.075226	0.019379	-0.01297	0.061951	-0.16449	0.005646	-0.070801	0.083923	-0.050049	0.010529	0.20966	-0.26443	0.001678	-0.000763	-0.043182	-0.23086	0.23697	-0.1712	0.067596	0.053558	-0.11734	0.029297	0.001373	-0.001678	1.0503	-0.000153	0.18677	-0.48675	-0.006866	0.019226
13.957	-0.007324	-0.1265	0.049744	0.012665	-0.035095	0.049286	-0.16525	-0.002441	0.072479	-0.010834	0.11551	0.000763	0.25406	-0.056152	-0.00824	0.010834	-0.045929	-0.18814	0.21759	-0.15015	0.06073	0.046082	-0.24155	0.14694	0.00946	-0.005646	1.1469	-0.005188	-0.47104	-0.37277	-0.007629	0.014801
13.958	0.003662	-0.13962	-0.040741	0.003662	-0.039368	0.001221	-0.036926	-0.013123	0.09613	-0.081329	0.30212	0.011902	-0.12466	0.17349	-0.024414	0.017395	-0.02243	-0.23438	0.22614	-0.14145	0.049591	0.051117	-0.44525	0.12009	-0.001526	-0.0177	0.58395	-0.00351	-0.49606	-0.088654	-0.003052	0.003052
13.959	0.008392	-0.15381	-0.080719	0.018616	-0.029907	-0.03479	0.12299	-0.004425	0.066376	-0.054321	0.33173	-0.003204	0.224	0.15488	0.041962	-0.004578	-0.02121	-0.2536	0.28992	-0.057983	0.045166	0.049438	-0.27069	0.098724	-0.025635	-0.005035	-0.70297	-0.001526	-0.26413	0.059967	-0.006714	0.010376
13.96	0.002594	-0.13534	-0.002289	0.033722	-0.059662	-0.042419	0.15121	0.006256	0.052643	-0.002289	0.20309	-0.011444	-0.11688	0.083313	0.074158	-0.014038	-0.011444	-0.24277	0.41458	0.061188	0.037994	0.049744	-0.1503	0.016632	-0.028687	0.002441	-1.4581	-0.003204	0.24979	0.088196	0.00061	0.015717
13.961	0.006409	-0.16525	0.031128	0.014954	-0.029297	0.00473	0.16632	0.01236	0.024719	-0.01236	-0.032349	-0.001831	-0.1947	0.08728	-0.20386	-0.005341	0.003662	-0.2713	0.55954	0.081177	0.022278	0.020447	-0.085754	-0.065002	-0.026093	0.001831	-1.3095	-0.005646	0.29572	0.054474	-0.001678	0.012817
13.962	0.006714	-0.17319	-0.023956	-0.005341	0.044098	0.000763	0.15747	0.005035	0.051727	-0.021362	-0.029297	-0.00061	-0.29434	0.076752	-0.32593	-0.016327	0.010223	-0.29648	0.46875	0.032501	0.026703	0.032501	-0.009155	-0.02182	-0.016937	0.000458	-0.71838	0.000153	0.41229	-0.033569	-0.004578	-0.00061
13.963	0.016174	-0.1535	0.000763	-0.00061	0.045013	-0.059052	0.15289	0.006561	0.05249	-0.024414	-0.056915	0.001068	-0.06073	-0.00412	-0.27023	-0.010223	-0.003052	-0.25299	0.45487	0.021057	0.017242	0.024719	0.10391	-0.029297	-0.012665	0.002441	-0.78095	0.002136	0.46707	-0.11307	-0.003967	0.003662
13.964	0.011902	-0.1648	-0.076141	0.020447	0.029907	-0.056305	0.15152	0.005951	0.03891	-0.020599	-0.12375	0.006714	0.10117	-0.031586	-0.19821	-0.016785	-0.001831	-0.22873	0.32806	-0.000458	0.020447	0.026855	0.015869	-0.013885	-0.00946	0.001068	-0.64163	-0.007782	0.20584	-0.094452	0.007172	0.012665
13.965	0.000458	-0.21683	-0.14862	-0.001678	0.00885	-0.016022	0.093536	0.015564	0.039978	-0.014191	-0.07431	0.010223	-0.19134	-0.16861	-0.39642	-0.005341	0.003052	-0.26032	0.099182	-0.066223	0.011597	0.024414	-0.13336	0.032654	-0.005951	0.001221	-0.28458	-0.006256	-0.16739	0.033722	-0.00061	0.00351
13.966	0.014191	-0.23392	-0.12131	-0.003815	-0.003357	-0.000763	0.049286	0.011749	0.034485	0.02182	-0.11383	0.007324	-0.33188	-0.12558	-0.37933	0.003662	-0.007629	-0.24796	0.010529	-0.053101	0.005951	0.046539	-0.3186	0.005035	-0.015564	0.005188	-0.43152	-0.009003	-0.29465	0.040436	-0.003815	0.010223
